<?xml version="1.0" encoding="UTF-8"?>
<svg xmlns="http://www.w3.org/2000/svg" width="1169" height="827" viewBox="0 0 1169 827">
<rect x="0" y="0" width="100%" height="100%" fill="#ffffff"/>
<rect x="60.00" y="60.00" width="1048.00" height="692.00" rx="6.00" ry="6.00" fill="#FAFAFA" stroke="#C8C8C8" stroke-width="1.20"/>
<rect x="110.00" y="150.00" width="300.00" height="72.00" rx="4.80" ry="4.80" fill="#FFFFFF" stroke="#202020" stroke-width="1.80"/>
<rect x="110.00" y="245.00" width="300.00" height="72.00" rx="4.80" ry="4.80" fill="#FFFFFF" stroke="#202020" stroke-width="1.80"/>
<rect x="110.00" y="340.00" width="300.00" height="72.00" rx="4.80" ry="4.80" fill="#FFFFFF" stroke="#202020" stroke-width="1.80"/>
<rect x="110.00" y="435.00" width="300.00" height="72.00" rx="4.80" ry="4.80" fill="#FFFFFF" stroke="#202020" stroke-width="1.80"/>
<rect x="110.00" y="530.00" width="300.00" height="72.00" rx="4.80" ry="4.80" fill="#FFFFFF" stroke="#202020" stroke-width="1.80"/>
<rect x="560.00" y="300.00" width="250.00" height="90.00" rx="4.80" ry="4.80" fill="#F5F5F5" stroke="#404040" stroke-width="1.60"/>
<rect x="860.00" y="300.00" width="210.00" height="90.00" rx="4.80" ry="4.80" fill="#F5F5F5" stroke="#404040" stroke-width="1.60"/>
<polyline points="260.00,222.00 260.00,245.00" fill="none" stroke="#303030" stroke-width="1.70" stroke-linejoin="round" stroke-linecap="round"/>
<polygon points="260.00,245.00 256.18,236.50 263.82,236.50" fill="#303030"/>
<polyline points="260.00,317.00 260.00,340.00" fill="none" stroke="#303030" stroke-width="1.70" stroke-linejoin="round" stroke-linecap="round"/>
<polygon points="260.00,340.00 256.18,331.50 263.82,331.50" fill="#303030"/>
<polyline points="260.00,412.00 260.00,435.00" fill="none" stroke="#303030" stroke-width="1.70" stroke-linejoin="round" stroke-linecap="round"/>
<polygon points="260.00,435.00 256.18,426.50 263.82,426.50" fill="#303030"/>
<polyline points="260.00,507.00 260.00,530.00" fill="none" stroke="#303030" stroke-width="1.70" stroke-linejoin="round" stroke-linecap="round"/>
<polygon points="260.00,530.00 256.18,521.50 263.82,521.50" fill="#303030"/>
<polyline points="410.00,471.00 470.00,470.00 560.00,345.00" fill="none" stroke="#303030" stroke-width="1.70" stroke-linejoin="round" stroke-linecap="round"/>
<polygon points="560.00,345.00 558.14,354.13 551.93,349.66" fill="#303030"/>
<polyline points="410.00,566.00 470.00,560.00 560.00,367.50" fill="none" stroke="#303030" stroke-width="1.70" stroke-dasharray="8 6" stroke-linejoin="round" stroke-linecap="round"/>
<polygon points="560.00,367.50 559.87,376.82 552.93,373.58" fill="#303030"/>
<polyline points="810.00,345.00 860.00,345.00" fill="none" stroke="#303030" stroke-width="1.70" stroke-linejoin="round" stroke-linecap="round"/>
<polygon points="860.00,345.00 851.50,348.82 851.50,341.18" fill="#303030"/>
<polyline points="1070.00,345.00 1110.00,430.00 80.00,430.00 80.00,281.00 110.00,281.00" fill="none" stroke="#303030" stroke-width="1.70" stroke-dasharray="8 6" stroke-linejoin="round" stroke-linecap="round"/>
<polygon points="110.00,281.00 101.50,284.82 101.50,277.18" fill="#303030"/>
<text x="98.00" y="110.62" text-anchor="start" font-family="Microsoft YaHei" font-size="15.0" font-weight="700" fill="#111111">实时处理主路径（单会话）</text>
<text x="260.00" y="182.75" text-anchor="middle" font-family="Microsoft YaHei" font-size="13.0" font-weight="700" fill="#111111">Step1 采集帧</text>
<text x="260.00" y="199.00" text-anchor="middle" font-family="Microsoft YaHei" font-size="13.0" font-weight="700" fill="#111111">读取 gaze / pose / conf</text>
<text x="260.00" y="277.75" text-anchor="middle" font-family="Microsoft YaHei" font-size="13.0" font-weight="700" fill="#111111">Step2 质量检查</text>
<text x="260.00" y="294.00" text-anchor="middle" font-family="Microsoft YaHei" font-size="13.0" font-weight="700" fill="#111111">低置信度过滤与边界裁剪</text>
<text x="260.00" y="372.75" text-anchor="middle" font-family="Microsoft YaHei" font-size="13.0" font-weight="700" fill="#111111">Step3 视线优化</text>
<text x="260.00" y="389.00" text-anchor="middle" font-family="Microsoft YaHei" font-size="13.0" font-weight="700" fill="#111111">归一化 -&gt; 标定 -&gt; 平滑</text>
<text x="260.00" y="467.75" text-anchor="middle" font-family="Microsoft YaHei" font-size="13.0" font-weight="700" fill="#111111">Step4 交互决策</text>
<text x="260.00" y="484.00" text-anchor="middle" font-family="Microsoft YaHei" font-size="13.0" font-weight="700" fill="#111111">命中判定 + 停留触发</text>
<text x="260.00" y="562.75" text-anchor="middle" font-family="Microsoft YaHei" font-size="13.0" font-weight="700" fill="#111111">Step5 状态更新</text>
<text x="260.00" y="579.00" text-anchor="middle" font-family="Microsoft YaHei" font-size="13.0" font-weight="700" fill="#111111">文本与候选区刷新</text>
<text x="685.00" y="342.00" text-anchor="middle" font-family="Microsoft YaHei" font-size="12.0" font-weight="400" fill="#111111">日志写入</text>
<text x="685.00" y="357.00" text-anchor="middle" font-family="Microsoft YaHei" font-size="12.0" font-weight="400" fill="#111111">事件 / 停留时长 / 状态变化</text>
<text x="965.00" y="334.50" text-anchor="middle" font-family="Microsoft YaHei" font-size="12.0" font-weight="400" fill="#111111">指标计算</text>
<text x="965.00" y="349.50" text-anchor="middle" font-family="Microsoft YaHei" font-size="12.0" font-weight="400" fill="#111111">CER / CPM / WPM</text>
<text x="965.00" y="364.50" text-anchor="middle" font-family="Microsoft YaHei" font-size="12.0" font-weight="400" fill="#111111">失败归因</text>
<text x="1062.00" y="700.12" text-anchor="end" font-family="Microsoft YaHei" font-size="11.0" font-weight="400" fill="#444444">线型说明：实线=主流程；虚线=反馈/辅助路径。</text>
<text x="584.00" y="730.50" text-anchor="middle" font-family="Microsoft YaHei" font-size="12.0" font-weight="400" fill="#333333">图4-2  眼控输入实时数据流与处理流程</text>
</svg>