<?xml version="1.0" encoding="UTF-8"?>
<svg xmlns="http://www.w3.org/2000/svg" width="1169" height="827" viewBox="0 0 1169 827">
<rect x="0" y="0" width="100%" height="100%" fill="#ffffff"/>
<rect x="60.00" y="60.00" width="1048.00" height="692.00" rx="6.00" ry="6.00" fill="#FAFAFA" stroke="#C8C8C8" stroke-width="1.20"/>
<rect x="160.00" y="140.00" width="180.00" height="68.00" rx="4.80" ry="4.80" fill="#FFFFFF" stroke="#202020" stroke-width="1.80"/>
<rect x="160.00" y="250.00" width="180.00" height="86.00" rx="4.80" ry="4.80" fill="#FFFFFF" stroke="#202020" stroke-width="1.80"/>
<polygon points="510.00,270.00 590.00,318.00 510.00,366.00 430.00,318.00" fill="#FFFFFF" stroke="#202020" stroke-width="1.80"/>
<rect x="700.00" y="180.00" width="210.00" height="80.00" rx="4.80" ry="4.80" fill="#FFFFFF" stroke="#202020" stroke-width="1.80"/>
<rect x="700.00" y="300.00" width="210.00" height="80.00" rx="4.80" ry="4.80" fill="#FFFFFF" stroke="#202020" stroke-width="1.80"/>
<rect x="700.00" y="420.00" width="210.00" height="80.00" rx="4.80" ry="4.80" fill="#FFFFFF" stroke="#202020" stroke-width="1.80"/>
<rect x="940.00" y="300.00" width="140.00" height="80.00" rx="4.80" ry="4.80" fill="#F5F5F5" stroke="#404040" stroke-width="1.60"/>
<polyline points="250.00,208.00 250.00,250.00" fill="none" stroke="#303030" stroke-width="1.70" stroke-linejoin="round" stroke-linecap="round"/>
<polygon points="250.00,250.00 246.18,241.50 253.82,241.50" fill="#303030"/>
<polyline points="340.00,293.00 430.00,318.00" fill="none" stroke="#303030" stroke-width="1.70" stroke-linejoin="round" stroke-linecap="round"/>
<polygon points="430.00,318.00 420.79,319.41 422.83,312.04" fill="#303030"/>
<polyline points="590.00,298.80 700.00,220.00" fill="none" stroke="#303030" stroke-width="1.70" stroke-linejoin="round" stroke-linecap="round"/>
<polygon points="700.00,220.00 695.32,228.06 690.86,221.84" fill="#303030"/>
<polyline points="590.00,337.20 700.00,340.00" fill="none" stroke="#303030" stroke-width="1.70" stroke-linejoin="round" stroke-linecap="round"/>
<polygon points="700.00,340.00 691.41,343.61 691.60,335.96" fill="#303030"/>
<polyline points="805.00,380.00 805.00,420.00" fill="none" stroke="#303030" stroke-width="1.70" stroke-linejoin="round" stroke-linecap="round"/>
<polygon points="805.00,420.00 801.17,411.50 808.83,411.50" fill="#303030"/>
<polyline points="910.00,340.00 940.00,340.00" fill="none" stroke="#303030" stroke-width="1.70" stroke-linejoin="round" stroke-linecap="round"/>
<polygon points="940.00,340.00 931.50,343.82 931.50,336.18" fill="#303030"/>
<polyline points="700.00,460.00 520.00,540.00 120.00,540.00 120.00,293.00 160.00,293.00" fill="none" stroke="#303030" stroke-width="1.70" stroke-dasharray="8 6" stroke-linejoin="round" stroke-linecap="round"/>
<polygon points="160.00,293.00 151.50,296.82 151.50,289.18" fill="#303030"/>
<polyline points="700.00,220.00 620.00,220.00 620.00,120.00 250.00,120.00 250.00,250.00" fill="none" stroke="#303030" stroke-width="1.70" stroke-dasharray="8 6" stroke-linejoin="round" stroke-linecap="round"/>
<polygon points="250.00,250.00 246.18,241.50 253.82,241.50" fill="#303030"/>
<text x="98.00" y="110.62" text-anchor="start" font-family="Microsoft YaHei" font-size="15.0" font-weight="700" fill="#111111">异常检测与恢复流程</text>
<text x="250.00" y="178.88" text-anchor="middle" font-family="Microsoft YaHei" font-size="13.0" font-weight="700" fill="#111111">开始会话</text>
<text x="250.00" y="289.75" text-anchor="middle" font-family="Microsoft YaHei" font-size="13.0" font-weight="700" fill="#111111">监控窗口指标</text>
<text x="250.00" y="306.00" text-anchor="middle" font-family="Microsoft YaHei" font-size="13.0" font-weight="700" fill="#111111">conf / fps / event_gap</text>
<text x="510.00" y="322.50" text-anchor="middle" font-family="Microsoft YaHei" font-size="12.0" font-weight="700" fill="#111111">是否异常？</text>
<text x="805.00" y="216.75" text-anchor="middle" font-family="Microsoft YaHei" font-size="13.0" font-weight="700" fill="#111111">维持会话</text>
<text x="805.00" y="233.00" text-anchor="middle" font-family="Microsoft YaHei" font-size="13.0" font-weight="700" fill="#111111">继续主流程</text>
<text x="805.00" y="336.75" text-anchor="middle" font-family="Microsoft YaHei" font-size="13.0" font-weight="700" fill="#111111">状态重置</text>
<text x="805.00" y="353.00" text-anchor="middle" font-family="Microsoft YaHei" font-size="13.0" font-weight="700" fill="#111111">清理缓存与计时器</text>
<text x="805.00" y="456.75" text-anchor="middle" font-family="Microsoft YaHei" font-size="13.0" font-weight="700" fill="#111111">会话重建</text>
<text x="805.00" y="473.00" text-anchor="middle" font-family="Microsoft YaHei" font-size="13.0" font-weight="700" fill="#111111">重新进入采集链路</text>
<text x="1010.00" y="337.00" text-anchor="middle" font-family="Microsoft YaHei" font-size="12.0" font-weight="400" fill="#111111">恢复日志</text>
<text x="1010.00" y="352.00" text-anchor="middle" font-family="Microsoft YaHei" font-size="12.0" font-weight="400" fill="#111111">标记异常类型</text>
<text x="1062.00" y="700.12" text-anchor="end" font-family="Microsoft YaHei" font-size="11.0" font-weight="400" fill="#444444">线型说明：实线=主流程；虚线=反馈/辅助路径。</text>
<text x="584.00" y="730.50" text-anchor="middle" font-family="Microsoft YaHei" font-size="12.0" font-weight="400" fill="#333333">图4-4  运行异常检测与恢复机制流程图</text>
</svg>