<?xml version="1.0" encoding="UTF-8"?>
<svg xmlns="http://www.w3.org/2000/svg" width="1169" height="827" viewBox="0 0 1169 827">
<rect x="0" y="0" width="100%" height="100%" fill="#ffffff"/>
<rect x="60.00" y="60.00" width="1048.00" height="692.00" rx="6.00" ry="6.00" fill="#FAFAFA" stroke="#C8C8C8" stroke-width="1.20"/>
<rect x="96.00" y="146.00" width="224.00" height="44.00" rx="4.80" ry="4.80" fill="#FFFFFF" stroke="#202020" stroke-width="1.80"/>
<rect x="340.00" y="146.00" width="184.00" height="44.00" rx="4.80" ry="4.80" fill="#FFFFFF" stroke="#202020" stroke-width="1.80"/>
<rect x="544.00" y="146.00" width="154.00" height="44.00" rx="4.80" ry="4.80" fill="#FFFFFF" stroke="#202020" stroke-width="1.80"/>
<rect x="98.00" y="268.00" width="1000.00" height="312.00" rx="4.80" ry="4.80" fill="#F5F5F5" stroke="#404040" stroke-width="1.60"/>
<rect x="264.00" y="398.00" width="100.00" height="150.00" rx="0.00" ry="0.00" fill="#404040" stroke="#202020" stroke-width="1.20"/>
<rect x="388.00" y="434.00" width="100.00" height="114.00" rx="0.00" ry="0.00" fill="#707070" stroke="#303030" stroke-width="1.20"/>
<rect x="646.00" y="382.00" width="100.00" height="166.00" rx="0.00" ry="0.00" fill="#9A9A9A" stroke="#404040" stroke-width="1.20"/>
<rect x="770.00" y="424.00" width="100.00" height="124.00" rx="0.00" ry="0.00" fill="#C2C2C2" stroke="#505050" stroke-width="1.20"/>
<text x="98.00" y="110.62" text-anchor="start" font-family="Microsoft YaHei" font-size="15.0" font-weight="700" fill="#111111">端到端任务结果（6轮）</text>
<text x="208.00" y="172.88" text-anchor="middle" font-family="Microsoft YaHei" font-size="13.0" font-weight="700" fill="#111111">exact_match_rate = 1.0</text>
<text x="432.00" y="172.88" text-anchor="middle" font-family="Microsoft YaHei" font-size="13.0" font-weight="700" fill="#111111">mean_CER = 0.0</text>
<text x="621.00" y="172.88" text-anchor="middle" font-family="Microsoft YaHei" font-size="13.0" font-weight="700" fill="#111111">run_count = 6</text>
<text x="196.00" y="252.50" text-anchor="middle" font-family="Microsoft YaHei" font-size="12.0" font-weight="400" fill="#111111">任务分组效率对比</text>
<text x="314.00" y="569.00" text-anchor="middle" font-family="Microsoft YaHei" font-size="12.0" font-weight="400" fill="#111111">T01 CPM</text>
<text x="314.00" y="584.00" text-anchor="middle" font-family="Microsoft YaHei" font-size="12.0" font-weight="400" fill="#111111">80.0</text>
<text x="438.00" y="569.00" text-anchor="middle" font-family="Microsoft YaHei" font-size="12.0" font-weight="400" fill="#111111">T01 WPM</text>
<text x="438.00" y="584.00" text-anchor="middle" font-family="Microsoft YaHei" font-size="12.0" font-weight="400" fill="#111111">16.0</text>
<text x="696.00" y="569.00" text-anchor="middle" font-family="Microsoft YaHei" font-size="12.0" font-weight="400" fill="#111111">T02 CPM</text>
<text x="696.00" y="584.00" text-anchor="middle" font-family="Microsoft YaHei" font-size="12.0" font-weight="400" fill="#111111">84.0</text>
<text x="820.00" y="569.00" text-anchor="middle" font-family="Microsoft YaHei" font-size="12.0" font-weight="400" fill="#111111">T02 WPM</text>
<text x="820.00" y="584.00" text-anchor="middle" font-family="Microsoft YaHei" font-size="12.0" font-weight="400" fill="#111111">16.8</text>
<text x="1062.00" y="700.12" text-anchor="end" font-family="Microsoft YaHei" font-size="11.0" font-weight="400" fill="#444444">说明：图中柱高用于相对比较，具体数值以正文和表格为准。</text>
<text x="583.00" y="730.50" text-anchor="middle" font-family="Microsoft YaHei" font-size="12.0" font-weight="400" fill="#333333">图5-3  端到端任务准确性与效率指标对比</text>
</svg>