<?xml version="1.0" encoding="UTF-8"?>
<svg xmlns="http://www.w3.org/2000/svg" width="1169" height="827" viewBox="0 0 1169 827">
<rect x="0" y="0" width="100%" height="100%" fill="#ffffff"/>
<rect x="60.00" y="60.00" width="1048.00" height="692.00" rx="6.00" ry="6.00" fill="#FAFAFA" stroke="#C8C8C8" stroke-width="1.20"/>
<rect x="92.00" y="150.00" width="196.00" height="90.00" rx="4.80" ry="4.80" fill="#FFFFFF" stroke="#202020" stroke-width="1.80"/>
<rect x="330.00" y="150.00" width="220.00" height="90.00" rx="4.80" ry="4.80" fill="#FFFFFF" stroke="#202020" stroke-width="1.80"/>
<rect x="592.00" y="150.00" width="220.00" height="90.00" rx="4.80" ry="4.80" fill="#FFFFFF" stroke="#202020" stroke-width="1.80"/>
<rect x="854.00" y="150.00" width="220.00" height="90.00" rx="4.80" ry="4.80" fill="#FFFFFF" stroke="#202020" stroke-width="1.80"/>
<rect x="92.00" y="318.00" width="196.00" height="84.00" rx="4.80" ry="4.80" fill="#FFFFFF" stroke="#202020" stroke-width="1.80"/>
<rect x="330.00" y="318.00" width="220.00" height="84.00" rx="4.80" ry="4.80" fill="#FFFFFF" stroke="#202020" stroke-width="1.80"/>
<rect x="592.00" y="318.00" width="220.00" height="84.00" rx="4.80" ry="4.80" fill="#FFFFFF" stroke="#202020" stroke-width="1.80"/>
<rect x="854.00" y="318.00" width="220.00" height="84.00" rx="4.80" ry="4.80" fill="#FFFFFF" stroke="#202020" stroke-width="1.80"/>
<rect x="330.00" y="468.00" width="220.00" height="84.00" rx="4.80" ry="4.80" fill="#F5F5F5" stroke="#404040" stroke-width="1.60"/>
<rect x="592.00" y="468.00" width="220.00" height="84.00" rx="4.80" ry="4.80" fill="#F5F5F5" stroke="#404040" stroke-width="1.60"/>
<polyline points="288.00,195.00 330.00,195.00" fill="none" stroke="#303030" stroke-width="1.70" stroke-linejoin="round" stroke-linecap="round"/>
<polygon points="330.00,195.00 321.50,198.82 321.50,191.18" fill="#303030"/>
<polyline points="550.00,195.00 592.00,195.00" fill="none" stroke="#303030" stroke-width="1.70" stroke-linejoin="round" stroke-linecap="round"/>
<polygon points="592.00,195.00 583.50,198.82 583.50,191.18" fill="#303030"/>
<polyline points="812.00,195.00 854.00,195.00" fill="none" stroke="#303030" stroke-width="1.70" stroke-linejoin="round" stroke-linecap="round"/>
<polygon points="854.00,195.00 845.50,198.82 845.50,191.18" fill="#303030"/>
<polyline points="288.00,360.00 330.00,360.00" fill="none" stroke="#303030" stroke-width="1.70" stroke-linejoin="round" stroke-linecap="round"/>
<polygon points="330.00,360.00 321.50,363.82 321.50,356.18" fill="#303030"/>
<polyline points="550.00,360.00 592.00,360.00" fill="none" stroke="#303030" stroke-width="1.70" stroke-linejoin="round" stroke-linecap="round"/>
<polygon points="592.00,360.00 583.50,363.82 583.50,356.18" fill="#303030"/>
<polyline points="812.00,360.00 854.00,360.00" fill="none" stroke="#303030" stroke-width="1.70" stroke-linejoin="round" stroke-linecap="round"/>
<polygon points="854.00,360.00 845.50,363.82 845.50,356.18" fill="#303030"/>
<polyline points="190.00,240.00 190.00,318.00" fill="none" stroke="#303030" stroke-width="1.70" stroke-linejoin="round" stroke-linecap="round"/>
<polygon points="190.00,318.00 186.18,309.50 193.82,309.50" fill="#303030"/>
<polyline points="964.00,240.00 964.00,318.00" fill="none" stroke="#303030" stroke-width="1.70" stroke-linejoin="round" stroke-linecap="round"/>
<polygon points="964.00,318.00 960.17,309.50 967.83,309.50" fill="#303030"/>
<polyline points="407.00,468.00 440.00,240.00" fill="none" stroke="#303030" stroke-width="1.70" stroke-dasharray="8 6" stroke-linejoin="round" stroke-linecap="round"/>
<polygon points="440.00,240.00 442.57,248.96 435.00,247.86" fill="#303030"/>
<polyline points="495.00,468.00 700.00,430.00 964.00,240.00" fill="none" stroke="#303030" stroke-width="1.70" stroke-dasharray="8 6" stroke-linejoin="round" stroke-linecap="round"/>
<polygon points="964.00,240.00 959.34,248.07 954.87,241.86" fill="#303030"/>
<polyline points="592.00,510.00 550.00,510.00" fill="none" stroke="#303030" stroke-width="1.70" stroke-dasharray="8 6" stroke-linejoin="round" stroke-linecap="round"/>
<polygon points="550.00,510.00 558.50,506.18 558.50,513.83" fill="#303030"/>
<text x="94.00" y="110.62" text-anchor="start" font-family="Microsoft YaHei" font-size="15.0" font-weight="700" fill="#111111">优化方法主链路</text>
<text x="190.00" y="191.75" text-anchor="middle" font-family="Microsoft YaHei" font-size="13.0" font-weight="700" fill="#111111">原始观测</text>
<text x="190.00" y="208.00" text-anchor="middle" font-family="Microsoft YaHei" font-size="13.0" font-weight="700" fill="#111111">(t, x, y, pose, conf)</text>
<text x="440.00" y="191.75" text-anchor="middle" font-family="Microsoft YaHei" font-size="13.0" font-weight="700" fill="#111111">归一化与边界约束</text>
<text x="440.00" y="208.00" text-anchor="middle" font-family="Microsoft YaHei" font-size="13.0" font-weight="700" fill="#111111">式(3.1)(3.2)</text>
<text x="702.00" y="191.75" text-anchor="middle" font-family="Microsoft YaHei" font-size="13.0" font-weight="700" fill="#111111">个体标定映射</text>
<text x="702.00" y="208.00" text-anchor="middle" font-family="Microsoft YaHei" font-size="13.0" font-weight="700" fill="#111111">式(3.3)(3.4)</text>
<text x="964.00" y="191.75" text-anchor="middle" font-family="Microsoft YaHei" font-size="13.0" font-weight="700" fill="#111111">时序平滑</text>
<text x="964.00" y="208.00" text-anchor="middle" font-family="Microsoft YaHei" font-size="13.0" font-weight="700" fill="#111111">EMA / One-Euro</text>
<text x="190.00" y="356.75" text-anchor="middle" font-family="Microsoft YaHei" font-size="13.0" font-weight="700" fill="#111111">优化坐标输出</text>
<text x="190.00" y="373.00" text-anchor="middle" font-family="Microsoft YaHei" font-size="13.0" font-weight="700" fill="#111111">(u, v)</text>
<text x="440.00" y="356.75" text-anchor="middle" font-family="Microsoft YaHei" font-size="13.0" font-weight="700" fill="#111111">命中判定</text>
<text x="440.00" y="373.00" text-anchor="middle" font-family="Microsoft YaHei" font-size="13.0" font-weight="700" fill="#111111">+ 停留触发</text>
<text x="702.00" y="364.88" text-anchor="middle" font-family="Microsoft YaHei" font-size="13.0" font-weight="700" fill="#111111">文本状态更新</text>
<text x="964.00" y="364.88" text-anchor="middle" font-family="Microsoft YaHei" font-size="13.0" font-weight="700" fill="#111111">日志与指标统计</text>
<text x="440.00" y="507.00" text-anchor="middle" font-family="Microsoft YaHei" font-size="12.0" font-weight="400" fill="#111111">参数配置</text>
<text x="440.00" y="522.00" text-anchor="middle" font-family="Microsoft YaHei" font-size="12.0" font-weight="400" fill="#111111">(alpha, tau, clipping)</text>
<text x="702.00" y="507.00" text-anchor="middle" font-family="Microsoft YaHei" font-size="12.0" font-weight="400" fill="#111111">反馈指标</text>
<text x="702.00" y="522.00" text-anchor="middle" font-family="Microsoft YaHei" font-size="12.0" font-weight="400" fill="#111111">CER / CPM / dwell</text>
<text x="1062.00" y="700.12" text-anchor="end" font-family="Microsoft YaHei" font-size="11.0" font-weight="400" fill="#444444">线型说明：实线=主流程；虚线=反馈/辅助路径。</text>
<text x="582.00" y="730.50" text-anchor="middle" font-family="Microsoft YaHei" font-size="12.0" font-weight="400" fill="#333333">图3-1  归一化-标定-平滑优化链路与任务闭环</text>
</svg>